<?xml version="1.0" encoding="utf-8"?>
<!-- Generator: Adobe Illustrator 23.0.1, SVG Export Plug-In . SVG Version: 6.00 Build 0)  -->
<svg version="1.1" id="Layer_1" xmlns="http://www.w3.org/2000/svg" xmlns:xlink="http://www.w3.org/1999/xlink" x="0px" y="0px"
	 viewBox="0 0 316.7 90.5" style="enable-background:new 0 0 316.7 90.5;" xml:space="preserve">
<style type="text/css">
	.st0{fill:#B9E5FB;stroke:#00AEEF;stroke-miterlimit:10;}
	.st1{fill:#231F20;}
	.st2{fill:#00AEEF;}
	.st3{fill:none;stroke:#00AEEF;stroke-miterlimit:10;}
	.st4{fill:#FFFFFF;}
	.st5{fill:#00AEEF;stroke:#00AEEF;stroke-miterlimit:10;}
</style>
<title>Asset 1</title>
<g>
	<g id="Layer_3">
		<circle class="st0" cx="61.7" cy="52.5" r="19.5"/>
		<circle class="st0" cx="278.4" cy="52.5" r="37.5"/>
	</g>
	<g id="NetCreate_copy">
		<path class="st1" d="M1,67V19.2l32.6,34.1V22.3h6.8v47.5l-32.6-34V67H1z"/>
		<path class="st1" d="M74.9,54.4H54.7c0.1,2.1,0.9,4.1,2.2,5.6c1.4,1.3,3.2,2.1,5.1,2c1.4,0,2.8-0.4,4-1.2c1.4-1.2,2.7-2.7,3.6-4.3
			l5.5,3.1c-0.8,1.3-1.7,2.6-2.7,3.7c-0.9,1-1.9,1.8-3,2.5c-1.1,0.7-2.3,1.2-3.5,1.5c-1.3,0.3-2.7,0.5-4.1,0.5
			c-3.8,0.2-7.5-1.3-10.1-4C49.2,61.1,48,57.5,48,53s1.2-8.1,3.7-10.8c2.5-2.7,6.1-4.3,9.8-4.1c4.2,0,7.4,1.3,9.8,4
			c2.4,2.7,3.6,6.3,3.6,10.9L74.9,54.4z M68.2,49.1c-0.9-3.5-3.1-5.2-6.6-5.2c-0.8,0-1.5,0.1-2.2,0.4c-0.7,0.2-1.3,0.6-1.9,1
			c-0.6,0.5-1.1,1-1.5,1.6c-0.4,0.7-0.7,1.4-0.9,2.2H68.2z"/>
		<path class="st1" d="M89.3,44.9V67h-6.5V44.9H80v-6.1h2.8V28.4h6.5v10.3h5.1v6.1H89.3z"/>
		<path class="st1" d="M151.4,24.7v8c-3.9-3.3-7.9-4.9-12.1-4.9c-4.4-0.1-8.6,1.7-11.6,5c-3.1,3.2-4.9,7.6-4.8,12
			c-0.1,4.4,1.6,8.7,4.8,11.8c3,3.2,7.3,4.9,11.6,4.8c2.1,0.1,4.1-0.3,6.1-1.2c1-0.4,2-1,2.9-1.6c1.1-0.7,2.2-1.5,3.1-2.4v8.1
			c-3.7,2.1-7.9,3.3-12.2,3.3c-6.1,0.1-12.1-2.3-16.4-6.7c-4.4-4.3-6.8-10.2-6.8-16.3c0-5.6,2-11,5.7-15.2c4.4-5.4,11.1-8.4,18-8.2
			C143.9,21.4,147.9,22.5,151.4,24.7z"/>
		<path class="st1" d="M158.4,38.8h6.5v2.5c0.9-1,2-1.9,3.2-2.6c1-0.5,2.2-0.8,3.4-0.7c1.9,0.1,3.8,0.6,5.4,1.7l-3,6
			c-1-0.8-2.3-1.3-3.6-1.3c-3.6,0-5.3,2.7-5.3,8V67h-6.5V38.8z"/>
		<path class="st1" d="M206.7,54.4h-20.2c0,2.1,0.9,4.1,2.3,5.6c1.4,1.3,3.2,2.1,5.1,2c1.4,0,2.8-0.4,4-1.2c1.4-1.2,2.6-2.7,3.6-4.3
			l5.5,3.1c-0.8,1.3-1.7,2.6-2.7,3.7c-0.9,1-1.9,1.8-3,2.6c-1.1,0.7-2.3,1.2-3.5,1.5c-1.3,0.3-2.7,0.5-4.1,0.5
			c-3.8,0.2-7.5-1.3-10.1-4c-2.5-2.7-3.8-6.3-3.8-10.8s1.2-8.1,3.7-10.8c2.5-2.8,6.2-4.3,9.9-4.1c4.2,0,7.4,1.3,9.9,4
			s3.6,6.3,3.6,10.9L206.7,54.4z M200,49.1c-0.9-3.5-3.1-5.2-6.6-5.2c-0.8,0-1.5,0.1-2.2,0.4c-0.7,0.2-1.3,0.6-1.9,1
			c-0.6,0.5-1.1,1-1.5,1.6c-0.4,0.7-0.7,1.4-0.9,2.2H200z"/>
		<path class="st1" d="M233.8,38.8h6.6V67h-6.6v-3c-4.8,4.9-12.8,5-17.7,0.2c-0.2-0.2-0.4-0.4-0.6-0.7c-2.6-3-3.9-6.8-3.8-10.8
			c-0.1-3.9,1.2-7.7,3.8-10.6c2.4-2.8,5.9-4.3,9.5-4.2c3.4,0,6.6,1.5,8.8,4.1V38.8z M218.3,52.8c-0.1,2.4,0.7,4.7,2.2,6.6
			c1.4,1.7,3.4,2.7,5.6,2.6c2.2,0.1,4.4-0.8,5.9-2.5c1.5-1.8,2.3-4.2,2.2-6.5c0.1-2.4-0.7-4.7-2.2-6.5c-1.5-1.7-3.6-2.6-5.8-2.5
			c-2.2,0-4.2,0.9-5.6,2.5C219.1,48.2,218.3,50.5,218.3,52.8L218.3,52.8z"/>
		<path class="st1" d="M256.1,44.9V67h-6.5V44.9h-2.8v-6.1h2.8V28.4h6.5v10.3h5.1v6.1H256.1z"/>
		<path class="st1" d="M291.3,54.4h-20.2c0.1,2.1,0.9,4.1,2.3,5.6c1.4,1.4,3.2,2.1,5.1,2c1.4,0,2.8-0.4,4-1.2
			c1.4-1.2,2.6-2.7,3.6-4.3l5.5,3.1c-0.8,1.3-1.7,2.6-2.7,3.7c-0.9,1-1.9,1.8-3,2.6c-1.1,0.7-2.3,1.2-3.5,1.5
			c-1.3,0.3-2.7,0.5-4.1,0.5c-3.8,0.2-7.5-1.3-10.1-4c-2.5-2.7-3.8-6.3-3.8-10.8s1.2-8.1,3.7-10.8c2.5-2.8,6.2-4.3,9.9-4.2
			c4.2,0,7.4,1.3,9.9,4s3.6,6.3,3.6,10.9L291.3,54.4z M284.6,49.1c-0.9-3.5-3.1-5.2-6.6-5.2c-0.8,0-1.5,0.1-2.2,0.4
			c-0.7,0.2-1.3,0.6-1.9,1c-0.6,0.5-1.1,1-1.5,1.6c-0.4,0.7-0.7,1.4-0.9,2.2H284.6z"/>
	</g>
	<g id="Layer_4">
		<polygon class="st2" points="244.9,69.4 71.8,69.4 76.3,65.4 243.2,65.4 		"/>
		<path class="st3" d="M61.5,32.8C82,13.6,122.5,0.5,169.1,0.5c35.7,0,67.7,7.6,90,19.9"/>
	</g>
	<g id="Layer_5">
		<polygon class="st4" points="242.8,65.9 76.6,65.9 77.4,64.9 242.5,64.9 		"/>
		<circle class="st5" cx="105.3" cy="67.4" r="4.9"/>
	</g>
</g>
</svg>
